HIERARCHY
ROOT Pelvis
{
	OFFSET -0.001795 -0.223333 0.028219
	CHANNELS 6 Xposition Yposition Zposition Zrotation Yrotation Xrotation 
	JOINT Left_hip
	{
		OFFSET 0.069520 -0.091406 -0.006815
		CHANNELS 3 Zrotation Yrotation Xrotation
		JOINT Left_knee
		{
			OFFSET 0.034277 -0.375199 -0.004496
			CHANNELS 3 Zrotation Yrotation Xrotation
			JOINT Left_ankle
			{
				OFFSET -0.013596 -0.397960 -0.043693
				CHANNELS 3 Zrotation Yrotation Xrotation
				JOINT Left_foot
				{
					OFFSET 0.026358 -0.055791 0.119288
					CHANNELS 3 Zrotation Yrotation Xrotation
					End Site
					{
						OFFSET 0.000000 0.000000 0.000000
					}
				}
			}
		}
	}
	JOINT Right_hip
	{
		OFFSET -0.067670 -0.090522 -0.004320
		CHANNELS 3 Zrotation Yrotation Xrotation
		JOINT Right_knee
		{
			OFFSET -0.038290 -0.382569 -0.008850
			CHANNELS 3 Zrotation Yrotation Xrotation
			JOINT Right_ankle
			{
				OFFSET 0.015774 -0.398415 -0.042312
				CHANNELS 3 Zrotation Yrotation Xrotation
				JOINT Right_foot
				{
					OFFSET -0.025372 -0.048144 0.123348
					CHANNELS 3 Zrotation Yrotation Xrotation
					End Site
					{
						OFFSET 0.000000 0.000000 0.000000
					}
				}
			}
		}
	}
	JOINT Spine1
	{
		OFFSET -0.002533 0.108963 -0.026696
		CHANNELS 3 Zrotation Yrotation Xrotation
		JOINT Spine2
		{
			OFFSET 0.005487 0.135180 0.001092
			CHANNELS 3 Zrotation Yrotation Xrotation
			JOINT Spine3
			{
				OFFSET 0.001457 0.052922 0.025425
				CHANNELS 3 Zrotation Yrotation Xrotation
				JOINT Neck
				{
					OFFSET -0.002778 0.213870 -0.042857
					CHANNELS 3 Zrotation Yrotation Xrotation
					JOINT Head
					{
						OFFSET 0.005152 0.064970 0.051349
						CHANNELS 3 Zrotation Yrotation Xrotation
						End Site
						{
							OFFSET 0.000000 0.000000 0.000000
						}
					}
				}
				JOINT Left_collar
				{
					OFFSET 0.078845 0.121749 -0.034090
					CHANNELS 3 Zrotation Yrotation Xrotation
					JOINT Left_shoulder
					{
						OFFSET 0.090977 0.030469 -0.008868
						CHANNELS 3 Zrotation Yrotation Xrotation
						JOINT Left_elbow
						{
							OFFSET 0.259612 -0.012772 -0.027456
							CHANNELS 3 Zrotation Yrotation Xrotation
							JOINT Left_wrist
							{
								OFFSET 0.249234 0.008986 -0.001171
								CHANNELS 3 Zrotation Yrotation Xrotation
								JOINT Left_palm
								{
									OFFSET 0.084042 -0.008162 -0.014945
									CHANNELS 3 Zrotation Yrotation Xrotation
									End Site
									{
										OFFSET 0.000000 0.000000 0.000000
									}
								}
							}
						}
					}
				}
				JOINT Right_collar
				{
					OFFSET -0.081759 0.118833 -0.038615
					CHANNELS 3 Zrotation Yrotation Xrotation
					JOINT Right_shoulder
					{
						OFFSET -0.096012 0.032551 -0.009143
						CHANNELS 3 Zrotation Yrotation Xrotation
						JOINT Right_elbow
						{
							OFFSET -0.253742 -0.013329 -0.021401
							CHANNELS 3 Zrotation Yrotation Xrotation
							JOINT Right_wrist
							{
								OFFSET -0.255298 0.007772 -0.005559
								CHANNELS 3 Zrotation Yrotation Xrotation
								JOINT Right_palm
								{
									OFFSET -0.084622 -0.006117 -0.010315
									CHANNELS 3 Zrotation Yrotation Xrotation
									End Site
									{
										OFFSET 0.000000 0.000000 0.000000
									}
								}
							}
						}
					}
				}
			}
		}
	}
}
MOTION
Frames: 13
Frame Time: 0.033333
-0.002413 0.599889 0.026279 -4.982726 0.081800 4.859393 31.365290 12.636961 -40.190213 -3.739435 6.420048 57.012769 -9.314060 6.470835 -5.239220 16.073985 16.533515 -19.189411 -23.011700 -10.479771 -17.745057 -0.726840 8.942760 37.924259 17.401732 -6.629432 -6.588562 -23.021593 -9.132445 -16.170749 -2.653299 0.452230 11.853335 0.305640 -6.555570 -4.937717 1.511197 -4.200296 0.730440 -5.331917 2.120243 -7.888163 9.292776 8.914298 -2.683452 12.879622 -20.519608 -13.071901 -63.630702 -61.567757 20.923061 112.920278 -69.726002 -92.753612 5.570113 -2.688607 -43.750063 0.000000 0.000000 0.000000 -18.093391 4.492414 -10.424445 37.634071 23.273330 -3.370325 -126.216025 57.131604 -97.076955 3.020548 1.808370 -10.800009 0.000000 0.000000 0.000000 
-0.004521 0.577474 0.024694 -6.783635 -0.294329 5.428125 34.269804 14.060943 -41.337502 -2.717228 6.519399 58.607079 -9.499146 5.262252 -4.468448 14.586575 20.261119 -19.993981 -22.603203 -10.742224 -20.008418 1.487023 10.595863 40.901495 17.097344 -5.220924 -11.084142 -22.613878 -10.908877 -15.757798 -2.755697 0.208475 12.810571 0.600095 -6.190955 -4.904283 1.962682 -4.981611 0.010198 -4.653806 3.275143 -7.210371 9.899294 7.959424 -1.214502 12.622022 -21.046638 -12.607085 -65.653891 -63.318950 21.435133 116.719669 -67.611734 -95.712734 6.539015 -2.409272 -47.883689 0.000000 0.000000 0.000000 -18.277603 4.193109 -11.570315 39.501194 21.236157 -2.437256 -124.065543 54.940796 -96.331680 3.196155 1.183577 -10.594683 0.000000 0.000000 0.000000 
-0.006475 0.571553 0.023721 -7.254845 -0.922821 6.145796 36.339492 15.015612 -39.741123 -2.047197 6.441088 59.113279 -10.448663 4.374047 -5.898498 16.834486 22.254057 -19.919942 -21.611111 -10.391620 -22.750236 2.090339 11.027696 44.586643 14.701753 -3.614998 -13.906331 -20.268076 -12.193601 -15.545278 -3.432922 -0.516726 12.431020 0.559039 -5.762786 -3.733560 2.131876 -5.338885 -0.656494 -4.895546 3.098502 -6.475329 10.713436 8.114995 -2.033621 11.249743 -21.414081 -10.953768 -64.217585 -62.242127 19.681480 121.525206 -65.796669 -99.448931 7.969043 -1.011688 -47.322764 0.000000 0.000000 0.000000 -17.282018 5.024739 -11.246937 42.146897 20.267694 -1.075210 -126.853080 54.440756 -97.131023 2.283337 0.750724 -11.598657 0.000000 0.000000 0.000000 
-0.009389 0.553404 0.021776 -7.072184 -1.903131 6.635721 38.484055 16.300894 -40.835194 -1.732241 5.146646 61.691325 -12.585726 5.832481 -5.535823 21.105602 22.383309 -18.970861 -21.582494 -9.893872 -24.987283 2.760636 11.833064 48.054955 14.540658 -3.454836 -13.625879 -20.043379 -14.174127 -15.496492 -4.643186 -1.410806 12.562492 0.147915 -5.926704 -3.525408 2.099554 -5.644446 -1.458637 -4.581588 1.912629 -7.352311 10.571577 7.860901 -1.927239 9.231649 -21.757265 -10.332515 -63.146725 -60.175073 18.634745 130.461123 -64.407143 -107.262480 9.280590 -0.282272 -46.128513 0.000000 0.000000 0.000000 -16.788589 5.713803 -10.905968 41.961448 21.109811 0.714328 -130.733987 55.339124 -99.583132 1.455345 -0.027992 -8.678602 0.000000 0.000000 0.000000 
-0.013147 0.541651 0.019548 -7.975348 -3.043227 7.041244 41.237125 17.701931 -40.890795 -2.362496 3.718006 63.954160 -14.700535 6.255197 -6.176173 23.534308 22.027796 -18.028662 -20.823000 -9.306329 -30.340603 4.028794 11.698055 53.077414 12.667650 -3.084327 -15.100984 -18.327533 -14.475980 -15.384477 -5.870169 -2.063762 13.469496 0.147423 -6.175596 -3.368657 2.072966 -6.003925 -2.012534 -4.578118 1.834057 -7.837136 9.689420 6.765878 -2.698102 8.851646 -21.306657 -10.760320 -56.891895 -57.566148 14.288553 137.992793 -62.443481 -112.590719 9.888271 1.029017 -41.901908 0.000000 0.000000 0.000000 -16.137798 5.884174 -11.026684 43.311544 22.230217 4.228752 -135.695641 57.497713 -103.865745 1.254066 -0.766385 -8.270252 0.000000 0.000000 0.000000 
-0.017837 0.527747 0.017215 -9.007112 -4.327395 7.705112 44.368994 19.202159 -39.883484 -3.340862 2.593572 65.713489 -16.491693 6.403672 -5.622285 25.718118 22.075713 -17.196717 -20.592809 -8.749304 -34.903104 5.491558 11.534204 58.153274 10.529104 -2.465215 -16.384038 -16.486203 -14.957730 -15.153238 -6.901513 -2.840788 14.792537 0.596474 -6.317561 -3.838861 1.648872 -6.136113 -2.516113 -4.018654 2.473531 -8.063709 8.467705 5.082898 -4.022704 9.189421 -21.522567 -10.660450 -53.581544 -55.270994 13.401224 143.617038 -60.477204 -117.070385 9.895156 1.651117 -38.951569 0.000000 0.000000 0.000000 -14.068264 6.328238 -10.499877 44.135593 23.032839 6.547041 -138.905787 58.911232 -106.249213 1.897483 -0.336177 -8.331691 0.000000 0.000000 0.000000 
-0.022602 0.508497 0.014734 -9.196499 -5.972266 7.976140 46.282793 20.300586 -39.264352 -3.629362 0.958615 67.193715 -17.594054 6.759109 -4.535876 27.072508 22.381083 -17.078540 -20.310243 -8.479483 -39.311901 7.600547 10.931873 63.450080 8.906564 -1.692012 -17.973840 -15.211131 -15.327012 -14.776956 -7.615133 -3.752639 15.979006 0.445195 -6.413147 -3.494866 1.155878 -6.612989 -2.891086 -3.356831 3.217345 -7.754524 7.766085 3.722163 -3.556663 7.847641 -21.066455 -9.116295 -50.186106 -52.658900 11.526212 147.532823 -59.582575 -121.229076 10.206621 2.231404 -37.141755 0.000000 0.000000 0.000000 -12.527325 6.530908 -9.549356 44.335025 24.171362 8.289518 -143.928396 60.864621 -111.959399 0.848306 -0.608564 -8.382353 0.000000 0.000000 0.000000 
-0.026179 0.488733 0.011713 -10.127050 -7.625647 8.069467 48.300241 20.879521 -38.519332 -4.069574 -0.143572 68.879266 -18.931826 6.933543 -4.410865 27.868449 22.891167 -17.267930 -20.494340 -7.947495 -42.939443 9.517326 10.382752 68.058000 7.962742 -1.255059 -19.854783 -14.543750 -15.402274 -14.088505 -8.171442 -4.345738 17.346790 0.160337 -6.510423 -2.500334 0.929300 -6.774807 -2.717455 -2.861931 4.449533 -7.867069 7.105156 3.072208 -4.325674 6.198390 -21.160833 -7.155503 -46.785770 -50.798842 9.714809 150.665533 -59.151612 -123.769694 10.838075 2.009716 -33.358720 0.000000 0.000000 0.000000 -11.077342 7.775627 -9.360313 45.126447 24.754504 10.744076 -149.745904 62.149245 -118.062151 0.096032 -0.159951 -7.457211 0.000000 0.000000 0.000000 
-0.029302 0.475086 0.008538 -11.095183 -9.332851 7.763152 50.590207 21.434274 -37.843284 -4.434236 -1.528428 70.442302 -19.940407 7.345862 -4.402811 28.886375 23.106934 -17.399791 -21.059049 -7.878146 -45.710839 10.557045 9.175049 71.833966 7.346581 -1.548327 -21.267396 -14.323461 -16.007838 -13.976174 -8.667187 -4.464046 18.202010 0.069623 -6.520551 -1.254684 0.760934 -6.879112 -3.025732 -2.671089 5.072668 -7.964428 6.819958 2.528465 -3.965550 5.445213 -21.508451 -6.213975 -42.838135 -50.296813 7.849524 150.766177 -59.142710 -123.694658 11.295619 1.624854 -31.253854 0.000000 0.000000 0.000000 -10.245341 9.482757 -8.647765 46.273378 24.878319 12.654043 -152.844249 63.276557 -120.837051 0.327699 0.340077 -7.002790 0.000000 0.000000 0.000000 
-0.030617 0.457206 0.005237 -11.816344 -10.878113 8.086936 53.002257 22.315242 -37.305823 -5.394349 -3.318902 72.505147 -21.311997 7.522140 -5.117185 30.248856 23.036874 -17.377602 -21.698987 -8.200401 -49.728532 11.792510 8.341064 76.098696 6.784905 -1.251475 -22.019245 -13.411755 -16.903595 -14.228848 -9.188329 -4.990106 18.875559 0.373675 -6.777997 -0.201227 0.911847 -7.306257 -3.511877 -1.981167 4.752846 -8.262491 7.342976 0.994540 -4.152370 4.181084 -22.314802 -4.570517 -38.551746 -50.228082 5.680963 150.488083 -59.605789 -123.684854 12.059507 1.887714 -29.315031 0.000000 0.000000 0.000000 -9.223983 10.677933 -8.227191 47.352942 24.646881 14.177477 -154.925054 64.247810 -122.800838 0.071220 -0.133195 -6.359001 0.000000 0.000000 0.000000 
-0.030877 0.441896 0.001680 -12.653989 -12.280913 8.600022 54.990450 22.277718 -36.874618 -6.315192 -4.631778 73.946988 -22.191001 7.776084 -6.582376 31.315601 23.099049 -17.230793 -21.779400 -8.370549 -52.901565 12.958307 7.200221 79.309181 6.486320 -0.971958 -22.579194 -11.921396 -17.293855 -14.921578 -9.867327 -5.510140 19.839798 0.605453 -6.844198 0.653051 1.270091 -7.776608 -3.695109 -1.707304 5.222736 -8.251702 7.500944 0.279609 -4.420652 4.149349 -22.989751 -4.178564 -36.443692 -49.589011 4.609036 149.054069 -60.465465 -122.235381 11.908781 2.658852 -27.934139 0.000000 0.000000 0.000000 -8.622136 11.316991 -7.820383 47.846626 24.168264 15.201944 -155.941241 65.993219 -123.559009 1.019404 -0.826863 -5.618813 0.000000 0.000000 0.000000 
-0.030632 0.423554 -0.001575 -13.658340 -13.490372 9.106763 56.552444 22.822213 -36.456162 -7.330994 -5.504588 75.916214 -22.634492 7.804326 -7.830213 32.458607 22.864488 -17.139749 -21.819106 -8.078064 -55.952419 14.469907 6.130679 82.627148 6.089874 -0.869256 -23.084131 -10.970540 -17.373052 -15.011524 -10.341064 -5.868699 20.266565 0.950271 -6.797911 1.107887 1.436037 -7.903161 -3.656044 -1.551689 6.563890 -8.468682 7.513689 0.268992 -4.665279 4.098969 -23.879426 -4.283347 -34.328813 -49.058316 3.688872 146.779562 -61.060703 -120.493805 11.567222 2.851284 -26.198059 0.000000 0.000000 0.000000 -7.732306 12.257185 -7.617038 47.617217 23.682117 15.923303 -157.141618 66.907210 -125.111650 1.454080 -0.833171 -5.509993 0.000000 0.000000 0.000000 
-0.029547 0.405907 -0.004348 -14.185290 -14.722940 9.552402 57.892871 23.343567 -36.158713 -8.058559 -6.172123 77.486017 -23.005016 7.935588 -7.977583 33.095595 22.865676 -16.894156 -22.264247 -8.334289 -58.209024 15.460263 5.584505 85.298054 5.929393 -0.727575 -23.294582 -10.794361 -17.143090 -14.712086 -10.480673 -6.039622 21.028840 1.367078 -7.060281 1.758210 1.612503 -8.324461 -3.985370 -1.353399 7.732980 -8.151217 7.406490 0.497231 -4.713346 4.254803 -24.617194 -4.228511 -31.425074 -48.665554 1.845403 143.913963 -61.170201 -118.071545 11.814323 2.592369 -24.151219 0.000000 0.000000 0.000000 -7.106289 12.848501 -7.312107 47.039081 23.500640 16.410948 -158.726361 66.794790 -126.920363 1.283930 -0.918619 -5.680289 0.000000 0.000000 0.000000 
